<mxfile host="65bd71144e">
    <diagram id="5SRGLbCM72qvLNjN6pcg" name="PÃ¡gina-1">
        <mxGraphModel dx="2290" dy="991" grid="1" gridSize="10" guides="1" tooltips="1" connect="1" arrows="1" fold="1" page="1" pageScale="1" pageWidth="827" pageHeight="1169" math="0" shadow="0">
            <root>
                <mxCell id="0"/>
                <mxCell id="1" parent="0"/>
                <mxCell id="13" value="Sincronizador" style="label;whiteSpace=wrap;html=1;align=center;verticalAlign=bottom;spacingLeft=0;spacingBottom=4;imageAlign=center;imageVerticalAlign=top;image=img/clipart/Gear_128x128.png" vertex="1" parent="1">
                    <mxGeometry x="90" y="505" width="120" height="80" as="geometry"/>
                </mxCell>
            </root>
        </mxGraphModel>
    </diagram>
</mxfile>
